<svg preserveAspectRatio="xMidYMid meet" data-bbox="6.3 6.2 231.6 67.3" viewBox="6.3 6.2 231.6 67.3" xmlns="http://www.w3.org/2000/svg" data-type="color" role="presentation" aria-hidden="true" aria-labelledby="svgcid-lqkqn8-65azm6"><title id="svgcid-lqkqn8-65azm6"></title>
    <g>
        <path d="M35.4 73.5 6.3 56.7V23L35.4 6.2 64.6 23v33.6L35.4 73.5zM7.3 56.1l28.1 16.2 28.1-16.2V23.6L35.4 7.4 7.3 23.6v32.5z" fill="#ec691e" data-color="1"></path>
        <path d="M31 53c-3 0-5.3-.7-6.7-2.2s-2.2-3.7-2.2-6.7.7-5.3 2.2-6.7c1.5-1.5 3.7-2.2 6.7-2.2h11.4c-.1-1.9-.6-3.2-1.5-3.9s-2.4-1-4.5-1h-3.1c-1.8 0-3.1.1-4 .4-.9.2-1.5.7-1.9 1.3-.3.8-.7 1.3-1 1.6s-.9.4-1.5.4c-.8 0-1.3-.2-1.8-.6-.4-.4-.6-1-.4-1.7.5-2 1.7-3.5 3.4-4.4 1.7-.9 4.1-1.4 7.2-1.4h3.1c3.6 0 6.2.9 8 2.6 1.7 1.7 2.6 4.4 2.6 8V51c0 1.5-.8 2.3-2.3 2.3s-2.3-.8-2.3-2.3v-1.2c-1.9 2-4.7 3.2-8.4 3.2h-3zm0-4.5h3c1.3 0 2.6-.1 3.7-.4 1.2-.2 2.2-.7 3-1.3s1.4-1.6 1.7-2.8v-4.4H31c-1.8 0-3 .3-3.5.9-.6.6-.9 1.8-.9 3.5 0 1.8.3 3 .9 3.5s1.8 1 3.5 1z" fill="#ec691e" data-color="1"></path>
        <path d="M63.1 53.5c-2.3 0-4.1-.5-5.4-1.4-1.3-.9-2.2-2.4-2.6-4.2-.1-.8 0-1.3.4-1.8.4-.4 1-.6 1.8-.6.7 0 1.3.2 1.6.6.3.4.6.9.8 1.7.2.5.6.9 1.1 1.1.5.2 1.3.3 2.2.3h8.8c1.4 0 2.3-.2 2.8-.7s.7-1.4.7-2.9c0-1.4-.2-2.4-.7-2.9s-1.4-.7-2.8-.7h-8.7c-2.6 0-4.5-.7-5.8-2s-2-3.3-2-5.8c0-2.6.6-4.6 1.9-5.9 1.3-1.3 3.2-1.9 5.9-1.9h8.4c4.2 0 6.7 1.8 7.5 5.3.1.8 0 1.3-.4 1.7s-1 .6-1.8.6c-.7 0-1.2-.2-1.6-.6-.3-.4-.6-.9-.8-1.5-.2-.4-.5-.7-1-.9-.4-.1-1.1-.2-1.9-.2h-8.4c-1.4 0-2.2.2-2.7.6s-.4 1.3-.4 2.7c0 1.3.2 2.2.7 2.6.4.4 1.3.7 2.6.7H72c2.7 0 4.7.7 6 2s2 3.4 2 6c0 2.7-.7 4.7-2 6.1-1.3 1.3-3.4 2-6 2h-8.9z" fill="#ffffff" data-color="2"></path>
        <path d="M91 63.7c-1.5 0-2.3-.8-2.3-2.3V28c0-1.5.8-2.3 2.3-2.3s2.3.8 2.3 2.3v.7c1-1 2.2-1.7 3.6-2.2s3-.7 4.8-.7h2c3.6 0 6.2.9 8 2.6 1.7 1.7 2.6 4.4 2.6 8v6.2c0 3.6-.9 6.2-2.6 7.9s-4.4 2.6-8 2.6H93.2v8.5c0 1.4-.7 2.1-2.2 2.1zm2.2-15.2h10.4c2.3 0 3.9-.4 4.8-1.3.8-.8 1.3-2.4 1.3-4.8v-6.2c0-2.3-.4-3.9-1.3-4.8-.9-.9-2.4-1.3-4.8-1.3h-2c-2.2 0-4.2.3-5.8.8-1.6.5-2.5 1.4-2.6 2.6v15z" fill="#ffffff" data-color="2"></path>
        <path d="M131.6 53.3c-3 0-5.3-1-6.7-2.5s-2.2-3.7-2.2-6.7.7-5.3 2.2-6.7c1.5-1.5 3.7-2.2 6.7-2.2H143c-.1-1.9-.6-3.2-1.5-3.9s-2.4-1-4.5-1h-3.1c-1.8 0-3.1.1-4 .4-.9.2-1.5.7-1.9 1.3-.3.8-.7 1.3-1 1.6s-.9.4-1.5.4c-.8 0-1.3-.2-1.8-.6-.4-.4-.6-1-.4-1.7.5-2 1.7-3.5 3.4-4.4s4.1-1.4 7.2-1.4h3.1c3.6 0 6.2.9 8 2.6 1.7 1.7 2.6 4.4 2.6 8V51c0 1.5-.8 2.3-2.3 2.3s-2.3-.8-2.3-2.3v-1.2c-1.9 2.3-4.7 3.5-8.4 3.5h-3zm0-4.8h3c1.3 0 2.6-.1 3.7-.4 1.2-.2 2.2-.7 3-1.3s1.4-1.6 1.7-2.8v-4.4h-11.4c-1.8 0-3 .3-3.5.9-.6.6-.9 1.8-.9 3.5 0 1.8.3 3 .9 3.5.6.5 1.8 1 3.5 1z" fill="#ffffff" data-color="2"></path>
        <path d="M165.7 53.6c-3 0-5.3-1-6.7-2.5-1.5-1.5-2.2-3.7-2.2-6.7s.7-5.3 2.2-6.7 3.7-2.2 6.7-2.2h11.4c-.1-1.9-.6-3.2-1.5-3.9-.9-.7-2.4-1-4.5-1H168c-1.8 0-3.1.1-4 .4-.9.2-1.5.7-1.9 1.3-.3.8-.7 1.3-1 1.6s-.9.4-1.5.4c-.8 0-1.3-.2-1.8-.6-.4-.4-.6-1-.4-1.7.5-2 1.7-3.5 3.4-4.4s4.1-1.4 7.2-1.4h3.1c3.6 0 6.2.9 8 2.6 1.7 1.7 2.6 4.4 2.6 8v14.5c0 1.5-.8 2.3-2.3 2.3s-2.3-.8-2.3-2.3v-1.2c-1.9 2.3-4.7 3.5-8.4 3.5h-3v-.3.3zm0-4.8h3c1.3 0 2.6-.1 3.7-.4 1.2-.2 2.2-.7 3-1.3s1.4-1.6 1.7-2.8v-4.4h-11.4c-1.8 0-3 .3-3.5.9-.6.6-.9 1.8-.9 3.5 0 1.8.3 3 .9 3.5.6.7 1.8 1 3.5 1z" fill="#ffffff" data-color="2"></path>
        <path d="M193.7 53c-1.5 0-2.3-.8-2.3-2.3V28c0-1.5.8-2.3 2.3-2.3s2.3.8 2.3 2.3v2.1c1.1-1.4 2.4-2.5 4-3.3 1.6-.7 3.5-1.1 5.6-1.1 1.5 0 2.3.8 2.3 2.3s-.8 2.3-2.3 2.3c-3.1 0-5.5.6-7.1 1.7-1.6 1.1-2.5 2.7-2.6 4.5v14.2c0 1.5-.7 2.3-2.2 2.3z" fill="#ffffff" data-color="2"></path>
        <path d="M221.9 53.3c-3 0-5.3-1-6.7-2.5-1.5-1.5-2.2-3.7-2.2-6.7s.7-5.3 2.2-6.7 3.7-2.2 6.7-2.2h11.4c-.1-1.9-.6-3.2-1.5-3.9s-2.4-1-4.5-1h-3.1c-1.8 0-3.1.1-4 .4-.9.2-1.5.7-1.9 1.3-.3.8-.7 1.3-1 1.6s-.9.4-1.5.4c-.8 0-1.3-.2-1.8-.6-.4-.4-.6-1-.4-1.7.5-2 1.7-3.5 3.4-4.4s4.1-1.4 7.2-1.4h3.1c3.6 0 6.2.9 8 2.6 1.7 1.7 2.6 4.4 2.6 8V51c0 1.5-.8 2.3-2.3 2.3s-2.3-.8-2.3-2.3v-1.2c-1.9 2.3-4.7 3.5-8.4 3.5h-3zm0-4.8h3c1.3 0 2.6-.1 3.7-.4 1.2-.2 2.2-.7 3-1.3s1.4-1.6 1.7-2.8v-4.4h-11.4c-1.8 0-3 .3-3.5.9-.6.6-.9 1.8-.9 3.5 0 1.8.3 3 .9 3.5s1.7 1 3.5 1z" fill="#ffffff" data-color="2"></path>
    </g>
</svg>